# xmcd CD database file
#
# Track frame offsets:
#	150
#	22278
#	46568
#	63223
#	74385
#	93143
#	118628
#	134035
#	151903
#	175498
#	199320
#	216900
#	241898
#	265215
#	272688
#	293798
#
# Disc length: 4442 seconds
#
# Revision: 0
# Processed by: cddbd v1.4PL0 Copyright (c) Steve Scherf et al.
# Submitted via: CDex 1.51
#
DISCID=f0115810
DTITLE=Mirage - Intimate Voyage
DYEAR=1989
DGENRE=New Age
TTITLE0=Awakening of the Spirit
TTITLE1=Departure
TTITLE2=Ancient Echoes
TTITLE3=Serenade
TTITLE4=Aquarelle
TTITLE5=Sonora
TTITLE6=Seduction
TTITLE7=Under a Western Sky
TTITLE8=Spirits of the Sinagua
TTITLE9=Legacy of the Cross
TTITLE10=Echoes of a Dream
TTITLE11=Toward 'The Sun's Eye'
TTITLE12=Sentinels of Time
TTITLE13=On the Edge
TTITLE14=Arrival
TTITLE15=Spirit Ascending
EXTD=YEAR: 1989
EXTT0=
EXTT1=
EXTT2=
EXTT3=
EXTT4=
EXTT5=
EXTT6=
EXTT7=
EXTT8=
EXTT9=
EXTT10=
EXTT11=
EXTT12=
EXTT13=
EXTT14=
EXTT15=
PLAYORDER=
